# xmcd CD database file
# Copyright (C) 1996 Ti Kan
#
# Track frame offsets:
# 	205
# 	19755
# 	35687
# 	49015
# 	61977
# 	73542
# 	82535
# 	104035
# 	116210
# 	133812
# 	148840
# 	166412
# 	180595
# 	196452
# 	210020
# 	219662
# 	232562
#
# Disc length: 3570 seconds
#
# Revision: 1
# Processed by: cddbd v1.4b41PL1 Copyright (c) Steve Scherf et al.
# Submitted via: DiscPlay 3.4.1
#
DISCID=ed0df011
DTITLE=Reverend Gary Davis - Pure Religion and Bad Company
DYEAR=1900
DGENRE=
TTITLE0=Pure Religion
TTITLE1=Mountain Jack
TTITLE2=Right Now
TTITLE3=Buck Dance
TTITLE4=Candy Man
TTITLE5=Devil's Dream
TTITLE6=Moon Goes Down
TTITLE7=Cocaine Blues
TTITLE8=Runnin' To The Judgement
TTITLE9=Hesitation Blues
TTITLE10=Bad Company
TTITLE11=I Didn't Want To join The Band
TTITLE12=Evening Sun Goes Down
TTITLE13=Seven Sisters
TTITLE14=My Heart is Fixed
TTITLE15=Time Is Drawing Near
TTITLE16=Crusifixion
EXTD=
EXTT0=
EXTT1=
EXTT2=
EXTT3=
EXTT4=
EXTT5=
EXTT6=
EXTT7=
EXTT8=
EXTT9=
EXTT10=
EXTT11=
EXTT12=
EXTT13=
EXTT14=
EXTT15=
EXTT16=
PLAYORDER=
